/* XPM */
static char * close_pressed_xpm[] = {
"22 22 64 1",
" 	c None",
".	c #303030",
"+	c #272727",
"@	c #6F3F3F",
"#	c #AA5656",
"$	c #CE6666",
"%	c #E07070",
"&	c #262626",
"*	c #493232",
"=	c #A95555",
"-	c #E17171",
";	c #E67474",
">	c #252525",
",	c #483131",
"'	c #B75B5B",
")	c #D86D6D",
"!	c #AC6464",
"~	c #906C6C",
"{	c #857B7B",
"]	c #242424",
"^	c #CA6868",
"/	c #926B6B",
"(	c #858585",
"_	c #6E3E3E",
":	c #868686",
"<	c #232323",
"[	c #AE6565",
"}	c #888888",
"|	c #222222",
"1	c #CD6666",
"2	c #937070",
"3	c #8A8A8A",
"4	c #8C8282",
"5	c #8C8C8C",
"6	c #212121",
"7	c #8D8484",
"8	c #8D8D8D",
"9	c #202020",
"0	c #977373",
"a	c #8F8F8F",
"b	c #A85555",
"c	c #B06767",
"d	c #919191",
"e	c #1F1F1F",
"f	c #6C3C3C",
"g	c #9A7373",
"h	c #939393",
"i	c #1E1E1E",
"j	c #A85454",
"k	c #CB6868",
"l	c #9B7474",
"m	c #959595",
"n	c #1D1D1D",
"o	c #422B2B",
"p	c #D96D6D",
"q	c #9A7676",
"r	c #968B8B",
"s	c #422A2A",
"t	c #A75454",
"u	c #1C1C1C",
"v	c #6A3939",
"w	c #CD6565",
"x	c #1B1B1B",
"y	c #1A1A1A",
"......................",
"++++++++++++++++++++++",
"+++++++@#$%%$#@+++++++",
"&&&&&*=-;;;;;;-=*&&&&&",
">>>>,';)!~{{~!);',>>>>",
"]]]]=;^/((((((/^;=]]]]",
"]]]_-)/::::::::/)-_]]]",
"<<<=;[}}}}}}}}}}[;=<<<",
"|||1;233333333332;1|||",
"|||%;455555555554;%|||",
"666%;788888888887;%666",
"9991;0aaaaaaaaaa0;1999",
"999b;cddddddddddc;b999",
"eeef-)ghhhhhhhhg)-feee",
"iiiij;klmmmmmmlk;jiiii",
"nnnno';pcqrrqcp;'onnnn",
"nnnnnst-;;;;;;-tsnnnnn",
"uuuuuuuvjw%%wjvuuuuuuu",
"xxxxxxxxxxxxxxxxxxxxxx",
"xxxxxxxxxxxxxxxxxxxxxx",
"yyyyyyyyyyyyyyyyyyyyyy",
"yyyyyyyyyyyyyyyyyyyyyy"};
