/* XPM */
static char * hide_pressed_xpm[] = {
"22 22 66 1",
" 	c None",
".	c #303030",
"+	c #272727",
"@	c #615322",
"#	c #917824",
"$	c #AF9128",
"%	c #BF9E2D",
"&	c #262626",
"*	c #423B23",
"=	c #907823",
"-	c #C09F2E",
";	c #C4A330",
">	c #252525",
",	c #423A23",
"'	c #9C8225",
")	c #B8992D",
"!	c #978239",
"~	c #857B57",
"{	c #827F76",
"]	c #242424",
"^	c #AD902E",
"/	c #877C54",
"(	c #858585",
"_	c #5F5221",
":	c #877C55",
"<	c #868686",
"[	c #232323",
"}	c #998239",
"|	c #888888",
"1	c #222222",
"2	c #AE9028",
"3	c #887E5A",
"4	c #8A8A8A",
"5	c #89877C",
"6	c #8C8C8C",
"7	c #212121",
"8	c #8A887E",
"9	c #8D8D8D",
"0	c #202020",
"a	c #8C825E",
"b	c #8F8F8F",
"c	c #907722",
"d	c #9A843A",
"e	c #919191",
"f	c #1F1F1F",
"g	c #5D4F1F",
"h	c #8E825A",
"i	c #939393",
"j	c #1E1E1E",
"k	c #8F7622",
"l	c #AE912E",
"m	c #8F835C",
"n	c #959595",
"o	c #1D1D1D",
"p	c #3C351D",
"q	c #9B8124",
"r	c #B9992D",
"s	c #9A863B",
"t	c #908461",
"u	c #939086",
"v	c #3B341C",
"w	c #8E7622",
"x	c #1C1C1C",
"y	c #5C4E1D",
"z	c #1B1B1B",
"A	c #1A1A1A",
"......................",
"++++++++++++++++++++++",
"+++++++@#$%%$#@+++++++",
"&&&&&*=-;;;;;;-=*&&&&&",
">>>>,';)!~{{~!);',>>>>",
"]]]]=;^/((((((/^;=]]]]",
"]]]_-):<<<<<<<<:)-_]]]",
"[[[=;}||||||||||};=[[[",
"1112;344444444443;2111",
"111%;566666666665;%111",
"777%;899999999998;%777",
"0002;abbbbbbbbbba;2000",
"000c;deeeeeeeeeed;c000",
"fffg-)hiiiiiiiih)-gfff",
"jjjjk;lmnnnnnnml;kjjjj",
"oooopq;rstuutsr;qpoooo",
"ooooovw-;;;;;;-wvooooo",
"xxxxxxxyk2%%2kyxxxxxxx",
"zzzzzzzzzzzzzzzzzzzzzz",
"zzzzzzzzzzzzzzzzzzzzzz",
"AAAAAAAAAAAAAAAAAAAAAA",
"AAAAAAAAAAAAAAAAAAAAAA"};
