/* XPM */
static char * hide_prelight_xpm[] = {
"22 22 66 1",
" 	c None",
".	c #303030",
"+	c #272727",
"@	c #615322",
"#	c #917824",
"$	c #AF9128",
"%	c #BF9E2D",
"&	c #262626",
"*	c #423B23",
"=	c #907823",
"-	c #C09F2E",
";	c #C4A330",
">	c #252525",
",	c #423A23",
"'	c #9C8225",
")	c #B9992D",
"!	c #9B863C",
"~	c #908661",
"{	c #939087",
"]	c #242424",
"^	c #AE912E",
"/	c #90845C",
"(	c #969696",
"_	c #5F5221",
":	c #B8992D",
"<	c #8F835C",
"[	c #959595",
"}	c #232323",
"|	c #9A853B",
"1	c #939393",
"2	c #222222",
"3	c #AE9028",
"4	c #8D835F",
"5	c #919191",
"6	c #8C8980",
"7	c #8F8F8F",
"8	c #212121",
"9	c #8A887E",
"0	c #8D8D8D",
"a	c #202020",
"b	c #89805B",
"c	c #8C8C8C",
"d	c #907722",
"e	c #998339",
"f	c #8A8A8A",
"g	c #1F1F1F",
"h	c #5D4F1F",
"i	c #887C55",
"j	c #888888",
"k	c #1E1E1E",
"l	c #8F7622",
"m	c #AD902E",
"n	c #877C55",
"o	c #868686",
"p	c #1D1D1D",
"q	c #3C351D",
"r	c #9B8124",
"s	c #978138",
"t	c #857B58",
"u	c #838076",
"v	c #3B341C",
"w	c #8E7622",
"x	c #1C1C1C",
"y	c #5C4E1D",
"z	c #1B1B1B",
"A	c #1A1A1A",
"......................",
"++++++++++++++++++++++",
"+++++++@#$%%$#@+++++++",
"&&&&&*=-;;;;;;-=*&&&&&",
">>>>,';)!~{{~!);',>>>>",
"]]]]=;^/((((((/^;=]]]]",
"]]]_-:<[[[[[[[[<:-_]]]",
"}}}=;|1111111111|;=}}}",
"2223;455555555554;3222",
"222%;677777777776;%222",
"888%;900000000009;%888",
"aaa3;bccccccccccb;3aaa",
"aaad;effffffffffe;daaa",
"gggh-:ijjjjjjjji:-hggg",
"kkkkl;mnoooooonm;lkkkk",
"ppppqr;:stuuts:;rqpppp",
"pppppvw-;;;;;;-wvppppp",
"xxxxxxxyl3%%3lyxxxxxxx",
"zzzzzzzzzzzzzzzzzzzzzz",
"zzzzzzzzzzzzzzzzzzzzzz",
"AAAAAAAAAAAAAAAAAAAAAA",
"AAAAAAAAAAAAAAAAAAAAAA"};
