/* XPM */
static char * maximize_inactive_xpm[] = {
"22 22 47 1",
" 	c None",
".	c #303030",
"+	c #272727",
"@	c #262626",
"#	c #252525",
"$	c #232323",
"%	c #202020",
"&	c #1D1D1D",
"*	c #1B1B1B",
"=	c #2A2A2A",
"-	c #505050",
";	c #6E6E6E",
">	c #828282",
",	c #242424",
"'	c #373737",
")	c #6A6A6A",
"!	c #898989",
"~	c #212121",
"{	c #292929",
"]	c #696969",
"^	c #888888",
"/	c #1E1E1E",
"(	c #4D4D4D",
"_	c #868686",
":	c #222222",
"<	c #1A1A1A",
"[	c #848484",
"}	c #181818",
"|	c #7A7A7A",
"1	c #171717",
"2	c #797979",
"3	c #808080",
"4	c #656565",
"5	c #7E7E7E",
"6	c #474747",
"7	c #7D7D7D",
"8	c #1F1F1F",
"9	c #1C1C1C",
"0	c #5F5F5F",
"a	c #7B7B7B",
"b	c #191919",
"c	c #2F2F2F",
"d	c #5E5E5E",
"e	c #444444",
"f	c #707070",
"g	c #151515",
"h	c #131313",
"......................",
"++++++++++++++++++++++",
"++++++++++++++++++++++",
"@@@@@@#$%&**&%$#@@@@@@",
"#####$%=-;>>;-=%$#####",
",,,,$%')!!!!!!)'%$,,,,",
",,,,~{]^^^^^^^^]{~,,,,",
"$$$$/(__________(/$$$$",
"::::<][[[[[[[[[[]<::::",
"::::}|>>>>>>>>>>|}::::",
"~~~~12333333333321~~~~",
"%%%%}455555555554}%%%%",
"%%%%<677777777776<%%%%",
"88889$0aaaaaaaa0$98888",
"////&bcd||||||dcb&////",
"&&&&&9b:e0ff0e:b9&&&&&",
"&&&&&&9<}ghhg}<9&&&&&&",
"9999999999999999999999",
"**********************",
"**********************",
"<<<<<<<<<<<<<<<<<<<<<<",
"<<<<<<<<<<<<<<<<<<<<<<"};
