/* XPM */
static char * maximize_prelight_xpm[] = {
"22 22 66 1",
" 	c None",
".	c #303030",
"+	c #272727",
"@	c #2E6122",
"#	c #389124",
"$	c #41AF28",
"%	c #48BF2D",
"&	c #262626",
"*	c #284223",
"=	c #379023",
"-	c #48C02E",
";	c #4BC430",
">	c #252525",
",	c #3A9C25",
"'	c #46B92D",
")	c #4E9B3C",
"!	c #6A9061",
"~	c #899387",
"{	c #242424",
"]	c #45AE2E",
"^	c #67905C",
"/	c #969696",
"(	c #2D5F21",
"_	c #46B82D",
":	c #668F5C",
"<	c #959595",
"[	c #232323",
"}	c #4D9A3B",
"|	c #939393",
"1	c #222222",
"2	c #40AE28",
"3	c #678D5F",
"4	c #919191",
"5	c #828C80",
"6	c #8F8F8F",
"7	c #212121",
"8	c #808A7E",
"9	c #8D8D8D",
"0	c #202020",
"a	c #64895B",
"b	c #8C8C8C",
"c	c #369022",
"d	c #4A9939",
"e	c #8A8A8A",
"f	c #1F1F1F",
"g	c #2A5D1F",
"h	c #5E8855",
"i	c #888888",
"j	c #1E1E1E",
"k	c #368F22",
"l	c #44AD2E",
"m	c #5D8755",
"n	c #868686",
"o	c #1D1D1D",
"p	c #223C1D",
"q	c #399B24",
"r	c #499738",
"s	c #608558",
"t	c #798376",
"u	c #223B1C",
"v	c #358E22",
"w	c #1C1C1C",
"x	c #285C1D",
"y	c #358F22",
"z	c #1B1B1B",
"A	c #1A1A1A",
"......................",
"++++++++++++++++++++++",
"+++++++@#$%%$#@+++++++",
"&&&&&*=-;;;;;;-=*&&&&&",
">>>>*,;')!~~!)';,*>>>>",
"{{{{=;]^//////^];={{{{",
"{{{(-_:<<<<<<<<:_-({{{",
"[[[=;}||||||||||};=[[[",
"1112;344444444443;2111",
"111%;566666666665;%111",
"777%;899999999998;%777",
"0002;abbbbbbbbbba;2000",
"000c;deeeeeeeeeed;c000",
"fffg-_hiiiiiiiih_-gfff",
"jjjjk;lmnnnnnnml;kjjjj",
"oooopq;_rsttsr_;qpoooo",
"ooooouv-;;;;;;-vuooooo",
"wwwwwwwxy2%%2yxwwwwwww",
"zzzzzzzzzzzzzzzzzzzzzz",
"zzzzzzzzzzzzzzzzzzzzzz",
"AAAAAAAAAAAAAAAAAAAAAA",
"AAAAAAAAAAAAAAAAAAAAAA"};
