/* XPM */
static char * maximize_pressed_xpm[] = {
"22 22 66 1",
" 	c None",
".	c #303030",
"+	c #272727",
"@	c #2E6122",
"#	c #389124",
"$	c #41AF28",
"%	c #48BF2D",
"&	c #262626",
"*	c #284223",
"=	c #379023",
"-	c #48C02E",
";	c #4BC430",
">	c #252525",
",	c #3A9C25",
"'	c #46B82D",
")	c #499739",
"!	c #608557",
"~	c #788276",
"{	c #242424",
"]	c #45AD2E",
"^	c #5D8754",
"/	c #858585",
"(	c #2D5F21",
"_	c #5D8755",
":	c #868686",
"<	c #232323",
"[	c #4A9939",
"}	c #888888",
"|	c #222222",
"1	c #40AE28",
"2	c #62885A",
"3	c #8A8A8A",
"4	c #7E897C",
"5	c #8C8C8C",
"6	c #212121",
"7	c #808A7E",
"8	c #8D8D8D",
"9	c #202020",
"0	c #668C5E",
"a	c #8F8F8F",
"b	c #369022",
"c	c #4C9A3A",
"d	c #919191",
"e	c #1F1F1F",
"f	c #2A5D1F",
"g	c #658E5A",
"h	c #939393",
"i	c #1E1E1E",
"j	c #368F22",
"k	c #45AE2E",
"l	c #668F5C",
"m	c #959595",
"n	c #1D1D1D",
"o	c #223C1D",
"p	c #399B24",
"q	c #46B92D",
"r	c #4D9A3B",
"s	c #699061",
"t	c #889386",
"u	c #223B1C",
"v	c #358E22",
"w	c #1C1C1C",
"x	c #285C1D",
"y	c #358F22",
"z	c #1B1B1B",
"A	c #1A1A1A",
"......................",
"++++++++++++++++++++++",
"+++++++@#$%%$#@+++++++",
"&&&&&*=-;;;;;;-=*&&&&&",
">>>>*,;')!~~!)';,*>>>>",
"{{{{=;]^//////^];={{{{",
"{{{(-'_::::::::_'-({{{",
"<<<=;[}}}}}}}}}}[;=<<<",
"|||1;233333333332;1|||",
"|||%;455555555554;%|||",
"666%;788888888887;%666",
"9991;0aaaaaaaaaa0;1999",
"999b;cddddddddddc;b999",
"eeef-'ghhhhhhhhg'-feee",
"iiiij;klmmmmmmlk;jiiii",
"nnnnop;qrsttsrq;ponnnn",
"nnnnnuv-;;;;;;-vunnnnn",
"wwwwwwwxy1%%1yxwwwwwww",
"zzzzzzzzzzzzzzzzzzzzzz",
"zzzzzzzzzzzzzzzzzzzzzz",
"AAAAAAAAAAAAAAAAAAAAAA",
"AAAAAAAAAAAAAAAAAAAAAA"};
