/* XPM */
static char * menu_inactive_xpm[] = {
"22 22 32 1",
" 	c None",
".	c #303030",
"+	c #272727",
"@	c #262626",
"#	c #252525",
"$	c #242424",
"%	c #232323",
"&	c #222222",
"*	c #212121",
"=	c #1D1D1D",
"-	c #1A1A1A",
";	c #202020",
">	c #2A2A2A",
",	c #606060",
"'	c #868686",
")	c #1B1B1B",
"!	c #5F5F5F",
"~	c #959595",
"{	c #181818",
"]	c #818181",
"^	c #919191",
"/	c #7D7D7D",
"(	c #8D8D8D",
"_	c #575757",
":	c #8A8A8A",
"<	c #1F1F1F",
"[	c #1C1C1C",
"}	c #555555",
"|	c #767676",
"1	c #1E1E1E",
"2	c #191919",
"3	c #161616",
"......................",
"++++++++++++++++++++++",
"++++++++++++++++++++++",
"@@@@@@@@@@@@@@@@@@@@@@",
"######################",
"$$$$$$$$$$$$$$$$$$$$$$",
"$$$$$$$$$$$$$$$$$$$$$$",
"%%%%%%%&*=--=*&%%%%%%%",
"&&&&&&&;>,'',>;&&&&&&&",
"&&&&&&&)!~~~~!)&&&&&&&",
"*******{]^^^^]{*******",
";;;;;;;{/((((/{;;;;;;;",
";;;;;;;-_::::_-;;;;;;;",
"<<<<<<<[#}||}#[<<<<<<<",
"1111111=[2332[=1111111",
"======================",
"======================",
"[[[[[[[[[[[[[[[[[[[[[[",
"))))))))))))))))))))))",
"))))))))))))))))))))))",
"----------------------",
"----------------------"};
