/* XPM */
static char * title_4_active_xpm[] = {
"10 22 16 1",
" 	c None",
".	c #303030",
"+	c #272727",
"@	c #262626",
"#	c #252525",
"$	c #242424",
"%	c #232323",
"&	c #222222",
"*	c #212121",
"=	c #202020",
"-	c #1F1F1F",
";	c #1E1E1E",
">	c #1D1D1D",
",	c #1C1C1C",
"'	c #1B1B1B",
")	c #1A1A1A",
"..........",
"++++++++++",
"++++++++++",
"@@@@@@@@@@",
"##########",
"$$$$$$$$$$",
"$$$$$$$$$$",
"%%%%%%%%%%",
"&&&&&&&&&&",
"&&&&&&&&&&",
"**********",
"==========",
"==========",
"----------",
";;;;;;;;;;",
">>>>>>>>>>",
">>>>>>>>>>",
",,,,,,,,,,",
"''''''''''",
"''''''''''",
"))))))))))",
"))))))))))"};
