/* XPM */
static char * top_left_active_shaded_xpm[] = {
"5 22 23 1",
" 	c None",
".	c #303030",
"+	c #272727",
"@	c #262626",
"#	c #252525",
"$	c #2F2F2F",
"%	c #242424",
"&	c #2E2E2E",
"*	c #232323",
"=	c #2D2D2D",
"-	c #222222",
";	c #2C2C2C",
">	c #2B2B2B",
",	c #212121",
"'	c #292929",
")	c #202020",
"!	c #282828",
"~	c #1F1F1F",
"{	c #1E1E1E",
"]	c #1D1D1D",
"^	c #1C1C1C",
"/	c #1B1B1B",
"(	c #1A1A1A",
"    .",
"  ..+",
" .+++",
" .@@@",
".####",
"$%%%%",
"$%%%%",
"&****",
"=----",
";----",
">,,,,",
"'))))",
"!))))",
"+~~~~",
"#{{{{",
"*]]]]",
"-]]]]",
")^^^^",
"{////",
"^////",
"/((((",
"((((("};
