/* XPM */
static char * close_pressed_xpm[] = {
"22 22 63 1",
" 	c None",
".	c #42372C",
"+	c #362D24",
"@	c #764940",
"#	c #B35E57",
"$	c #DE6F67",
"%	c #F67971",
"&	c #F67A71",
"*	c #523A30",
"=	c #B25E56",
"-	c #F77A72",
";	c #FD7E75",
">	c #332B22",
",	c #51392F",
"'	c #C4625B",
")	c #EF746C",
"!	c #BF675F",
"~	c #A27269",
"{	c #998279",
"]	c #322A21",
"^	c #E06E65",
"/	c #A57069",
"(	c #988C84",
"_	c #73473F",
":	c #9A8D84",
"<	c #C06962",
"[	c #9B8F87",
"}	c #312920",
"|	c #DE6E67",
"1	c #A7756C",
"2	c #9D9189",
"3	c #A18A81",
"4	c #9F938B",
"5	c #302820",
"6	c #A18B83",
"7	c #A2958C",
"8	c #2D261E",
"9	c #AA796F",
"0	c #A3988F",
"a	c #B15D56",
"b	c #C36A63",
"c	c #A59A91",
"d	c #70453D",
"e	c #AD786F",
"f	c #A79C93",
"g	c #2C251D",
"h	c #B15C55",
"i	c #E16F66",
"j	c #AE7870",
"k	c #A99E95",
"l	c #2B241C",
"m	c #4B342B",
"n	c #C3625A",
"o	c #C36B64",
"p	c #AE7D73",
"q	c #AB948B",
"r	c #4A332A",
"s	c #B05C55",
"t	c #2A231C",
"u	c #6E433A",
"v	c #DE6E66",
"w	c #28221B",
"x	c #27211A",
"......................",
"++++++++++++++++++++++",
"+++++++@#$%&$#@+++++++",
"+++++*=-;;;;;;-=*+++++",
">>>>,';)!~{{~!);',>>>>",
"]]]]=;^/((((((/^;=]]]]",
"]]]_-)/::::::::/)-_]]]",
"]]]=;<[[[[[[[[[[<;=]]]",
"}}}|;122222222221;|}}}",
"}}}&;344444444443;&}}}",
"555&;677777777776;&555",
"888|;900000000009;|888",
"888a;bccccccccccb;a888",
"888d-)effffffffe)-d888",
"ggggh;ijkkkkkkji;hgggg",
"llllmn;)opqqpo);nmllll",
"lllllrs-;;;;;;-srlllll",
"tttttttuhv%&vhuttttttt",
"wwwwwwwwwwwwwwwwwwwwww",
"wwwwwwwwwwwwwwwwwwwwww",
"xxxxxxxxxxxxxxxxxxxxxx",
"xxxxxxxxxxxxxxxxxxxxxx"};
