/* XPM */
static char * close_prelight_xpm[] = {
"22 22 64 1",
" 	c None",
".	c #42372C",
"+	c #362D24",
"@	c #764940",
"#	c #B35E57",
"$	c #DE6F67",
"%	c #F67971",
"&	c #F67A71",
"*	c #523A30",
"=	c #B25E56",
"-	c #F77A72",
";	c #FD7E75",
">	c #332B22",
",	c #51392F",
"'	c #C4625B",
")	c #EF746C",
"!	c #C36C65",
"~	c #AE7D73",
"{	c #AC958C",
"]	c #322A21",
"^	c #E16F66",
"/	c #AF7A71",
"(	c #AA9F96",
"_	c #73473F",
":	c #AE7970",
"<	c #A99E95",
"[	c #C36B63",
"}	c #A79C93",
"|	c #312920",
"1	c #DE6E67",
"2	c #AC7A71",
"3	c #A59A91",
"4	c #A38D85",
"5	c #A3988F",
"6	c #302820",
"7	c #A18B83",
"8	c #A2958C",
"9	c #2D261E",
"0	c #A8766D",
"a	c #9F938B",
"b	c #B15D56",
"c	c #C06962",
"d	c #9D9189",
"e	c #70453D",
"f	c #A67169",
"g	c #9B8F87",
"h	c #2C251D",
"i	c #B15C55",
"j	c #E06E65",
"k	c #A47068",
"l	c #9A8D84",
"m	c #2B241C",
"n	c #4B342B",
"o	c #C3625A",
"p	c #BF6861",
"q	c #A47269",
"r	c #9A837A",
"s	c #4A332A",
"t	c #B05C55",
"u	c #2A231C",
"v	c #6E433A",
"w	c #DE6E66",
"x	c #28221B",
"y	c #27211A",
"......................",
"++++++++++++++++++++++",
"+++++++@#$%&$#@+++++++",
"+++++*=-;;;;;;-=*+++++",
">>>>,';)!~{{~!);',>>>>",
"]]]]=;^/((((((/^;=]]]]",
"]]]_-):<<<<<<<<:)-_]]]",
"]]]=;[}}}}}}}}}}[;=]]]",
"|||1;233333333332;1|||",
"|||&;455555555554;&|||",
"666&;788888888887;&666",
"9991;0aaaaaaaaaa0;1999",
"999b;cddddddddddc;b999",
"999e-)fggggggggf)-e999",
"hhhhi;jkllllllkj;ihhhh",
"mmmmno;)pqrrqp);onmmmm",
"mmmmmst-;;;;;;-tsmmmmm",
"uuuuuuuviw%&wivuuuuuuu",
"xxxxxxxxxxxxxxxxxxxxxx",
"xxxxxxxxxxxxxxxxxxxxxx",
"yyyyyyyyyyyyyyyyyyyyyy",
"yyyyyyyyyyyyyyyyyyyyyy"};
