/* XPM */
static char * hide_pressed_xpm[] = {
"22 22 66 1",
" 	c None",
".	c #42372C",
"+	c #362D24",
"@	c #6E5A29",
"#	c #A18125",
"$	c #C49C21",
"%	c #D8AB23",
"&	c #524328",
"*	c #A08124",
"=	c #D9AC23",
"-	c #DFB125",
";	c #332B22",
">	c #514227",
",	c #AD8A23",
"'	c #D0A625",
")	c #A88938",
"!	c #988354",
"~	c #968774",
"{	c #322A21",
"]	c #9F8024",
"^	c #C39C26",
"/	c #9A8451",
"(	c #988C84",
"_	c #6D5928",
":	c #9B8452",
"<	c #9A8D84",
"[	c #A08024",
"}	c #AB8B37",
"|	c #9B8F87",
"1	c #312920",
"2	c #C39B21",
"3	c #9C8658",
"4	c #9D9189",
"5	c #9E8E7A",
"6	c #9F938B",
"7	c #302820",
"8	c #9F917D",
"9	c #A2958C",
"0	c #2D261E",
"a	c #A18A5B",
"b	c #A3988F",
"c	c #9F8023",
"d	c #AD8D38",
"e	c #A59A91",
"f	c #6A5726",
"g	c #A28C58",
"h	c #A79C93",
"i	c #2C251D",
"j	c #9E7F23",
"k	c #C59E26",
"l	c #A38C5B",
"m	c #A99E95",
"n	c #2B241C",
"o	c #493C23",
"p	c #AC8A22",
"q	c #D1A624",
"r	c #AF8E38",
"s	c #A48E5E",
"t	c #A79985",
"u	c #483B22",
"v	c #9E7E22",
"w	c #2A231C",
"x	c #685525",
"y	c #9F7F22",
"z	c #28221B",
"A	c #27211A",
"......................",
"++++++++++++++++++++++",
"+++++++@#$%%$#@+++++++",
"+++++&*=------=*&+++++",
";;;;>,-')!~~!)'-,>;;;;",
"{{{{]-^/((((((/^-]{{{{",
"{{{_=':<<<<<<<<:'=_{{{",
"{{{[-}||||||||||}-[{{{",
"1112-344444444443-2111",
"111%-566666666665-%111",
"777%-899999999998-%777",
"0002-abbbbbbbbbba-2000",
"000c-deeeeeeeeeed-c000",
"000f='ghhhhhhhhg'=f000",
"iiiij-klmmmmmmlk-jiiii",
"nnnnop-qrsttsrq-ponnnn",
"nnnnnuv=------=vunnnnn",
"wwwwwwwxy2%%2yxwwwwwww",
"zzzzzzzzzzzzzzzzzzzzzz",
"zzzzzzzzzzzzzzzzzzzzzz",
"AAAAAAAAAAAAAAAAAAAAAA",
"AAAAAAAAAAAAAAAAAAAAAA"};
