/* XPM */
static char * hide_inactive_xpm[] = {
"22 22 60 1",
" 	c None",
".	c #42372C",
"+	c #362D24",
"@	c #352C23",
"#	c #302920",
"$	c #2E261E",
"%	c #28221B",
"&	c #28211A",
"*	c #332B22",
"=	c #312920",
"-	c #2E271E",
";	c #383027",
">	c #60564D",
",	c #80746B",
"'	c #968980",
")	c #322A21",
"!	c #453C34",
"~	c #7C7067",
"{	c #9C9088",
"]	c #2F281F",
"^	c #372F27",
"/	c #7A6E66",
"(	c #9B8F87",
"_	c #2A231C",
":	c #5D534B",
"<	c #9A8D84",
"[	c #272019",
"}	c #7B6F66",
"|	c #978B83",
"1	c #231E18",
"2	c #8D8179",
"3	c #958981",
"4	c #302820",
"5	c #221D17",
"6	c #8B7F77",
"7	c #93877F",
"8	c #2D261E",
"9	c #241E18",
"0	c #766B63",
"a	c #91857D",
"b	c #27211A",
"c	c #564D44",
"d	c #8F837B",
"e	c #29231B",
"f	c #312922",
"g	c #6F655C",
"h	c #2C251D",
"i	c #2B241C",
"j	c #262019",
"k	c #3D352E",
"l	c #6E645B",
"m	c #8C8078",
"n	c #2A231B",
"o	c #2F2821",
"p	c #524941",
"q	c #6F655D",
"r	c #82776E",
"s	c #241F18",
"t	c #221D16",
"u	c #1E1914",
"......................",
"++++++++++++++++++++++",
"++++++++++++++++++++++",
"++++++@#$%&&%$#@++++++",
"*****=-;>,'',>;-=*****",
"))))=-!~{{{{{{~!-=))))",
"))))]^/((((((((/^]))))",
"))))_:<<<<<<<<<<:_))))",
"====[}||||||||||}[====",
"====12333333333321====",
"4444567777777777654444",
"888890aaaaaaaaaa098888",
"8888bcddddddddddcb8888",
"8888efg22222222gfe8888",
"hhhhijklmmmmmmlkjihhhh",
"iiiiinjopqrrqpojniiiii",
"iiiiiinbstuutsbniiiiii",
"______________________",
"%%%%%%%%%%%%%%%%%%%%%%",
"%%%%%%%%%%%%%%%%%%%%%%",
"bbbbbbbbbbbbbbbbbbbbbb",
"bbbbbbbbbbbbbbbbbbbbbb"};
