/* XPM */
static char * hide_prelight_xpm[] = {
"22 22 66 1",
" 	c None",
".	c #42372C",
"+	c #362D24",
"@	c #6E5A29",
"#	c #A18125",
"$	c #C49C21",
"%	c #D8AB23",
"&	c #524328",
"*	c #A08124",
"=	c #D9AC23",
"-	c #DFB125",
";	c #332B22",
">	c #514227",
",	c #AD8A23",
"'	c #D1A724",
")	c #AF8F3A",
"!	c #A4905F",
"~	c #A89A86",
"{	c #322A21",
"]	c #9F8024",
"^	c #C59E26",
"/	c #A58E5A",
"(	c #AA9F96",
"_	c #6D5928",
":	c #D0A625",
"<	c #A48C5B",
"[	c #A99E95",
"}	c #A08024",
"|	c #AE8F39",
"1	c #A79C93",
"2	c #312920",
"3	c #C39B21",
"4	c #A28D5C",
"5	c #A59A91",
"6	c #A1937F",
"7	c #A3988F",
"8	c #302820",
"9	c #9F917D",
"0	c #A2958C",
"a	c #2D261E",
"b	c #9E8858",
"c	c #9F938B",
"d	c #9F8023",
"e	c #AB8B37",
"f	c #9D9189",
"g	c #6A5726",
"h	c #9C8551",
"i	c #9B8F87",
"j	c #2C251D",
"k	c #9E7F23",
"l	c #C39C26",
"m	c #9B8452",
"n	c #9A8D84",
"o	c #2B241C",
"p	c #493C23",
"q	c #AC8A22",
"r	c #A98A37",
"s	c #998355",
"t	c #978773",
"u	c #483B22",
"v	c #9E7E22",
"w	c #2A231C",
"x	c #685525",
"y	c #9F7F22",
"z	c #28221B",
"A	c #27211A",
"......................",
"++++++++++++++++++++++",
"+++++++@#$%%$#@+++++++",
"+++++&*=------=*&+++++",
";;;;>,-')!~~!)'-,>;;;;",
"{{{{]-^/((((((/^-]{{{{",
"{{{_=:<[[[[[[[[<:=_{{{",
"{{{}-|1111111111|-}{{{",
"2223-455555555554-3222",
"222%-677777777776-%222",
"888%-900000000009-%888",
"aaa3-bccccccccccb-3aaa",
"aaad-effffffffffe-daaa",
"aaag=:hiiiiiiiih:=gaaa",
"jjjjk-lmnnnnnnml-kjjjj",
"oooopq-:rsttsr:-qpoooo",
"ooooouv=------=vuooooo",
"wwwwwwwxy3%%3yxwwwwwww",
"zzzzzzzzzzzzzzzzzzzzzz",
"zzzzzzzzzzzzzzzzzzzzzz",
"AAAAAAAAAAAAAAAAAAAAAA",
"AAAAAAAAAAAAAAAAAAAAAA"};
