/* XPM */
static char * maximize_pressed_xpm[] = {
"22 22 66 1",
" 	c None",
".	c #42372C",
"+	c #362D24",
"@	c #46652B",
"#	c #4C9A29",
"$	c #51BD28",
"%	c #59D12A",
"&	c #59D12B",
"*	c #414728",
"=	c #4B9928",
"-	c #59D22B",
";	c #5DD72D",
">	c #332B22",
",	c #4CA727",
"'	c #57CA2A",
")	c #60A13D",
"!	c #78915A",
"~	c #8F907A",
"{	c #322A21",
"]	c #4B9828",
"^	c #54BD2C",
"/	c #739357",
"(	c #988C84",
"_	c #45652A",
":	c #749358",
"<	c #9A8D84",
"[	c #60A33D",
"}	c #9B8F87",
"|	c #312920",
"1	c #51BD27",
"2	c #79955D",
"3	c #9D9189",
"4	c #979781",
"5	c #9F938B",
"6	c #302820",
"7	c #989983",
"8	c #A2958C",
"9	c #2D261E",
"0	c #7D9961",
"a	c #A3988F",
"b	c #4A9827",
"c	c #61A63E",
"d	c #A59A91",
"e	c #426228",
"f	c #7B9B5E",
"g	c #A79C93",
"h	c #2C251D",
"i	c #4A9727",
"j	c #55BD2D",
"k	c #7D9C60",
"l	c #A99E95",
"m	c #2B241C",
"n	c #394124",
"o	c #4BA626",
"p	c #57CB29",
"q	c #62A83E",
"r	c #819C64",
"s	c #A1A08B",
"t	c #384023",
"u	c #499727",
"v	c #2A231C",
"w	c #406026",
"x	c #51BC27",
"y	c #59D02B",
"z	c #28221B",
"A	c #27211A",
"......................",
"++++++++++++++++++++++",
"+++++++@#$%&$#@+++++++",
"+++++*=-;;;;;;-=*+++++",
">>>>*,;')!~~!)';,*>>>>",
"{{{{];^/((((((/^;]{{{{",
"{{{_-':<<<<<<<<:'-_{{{",
"{{{=;[}}}}}}}}}}[;={{{",
"|||1;233333333332;1|||",
"|||&;455555555554;&|||",
"666&;788888888887;&666",
"9991;0aaaaaaaaaa0;1999",
"999b;cddddddddddc;b999",
"999e-'fggggggggf'-e999",
"hhhhi;jkllllllkj;ihhhh",
"mmmmno;pqrssrqp;onmmmm",
"mmmmmtu-;;;;;;-utmmmmm",
"vvvvvvvwux%yxuwvvvvvvv",
"zzzzzzzzzzzzzzzzzzzzzz",
"zzzzzzzzzzzzzzzzzzzzzz",
"AAAAAAAAAAAAAAAAAAAAAA",
"AAAAAAAAAAAAAAAAAAAAAA"};
