/* XPM */
static char * maximize_prelight_xpm[] = {
"22 22 66 1",
" 	c None",
".	c #42372C",
"+	c #362D24",
"@	c #46652B",
"#	c #4C9A29",
"$	c #51BD28",
"%	c #59D12A",
"&	c #59D12B",
"*	c #414728",
"=	c #4B9928",
"-	c #59D22B",
";	c #5DD72D",
">	c #332B22",
",	c #4CA727",
"'	c #57CB29",
")	c #64A840",
"!	c #839D65",
"~	c #A2A18C",
"{	c #322A21",
"]	c #4B9828",
"^	c #55BE2D",
"/	c #7D9D60",
"(	c #AA9F96",
"_	c #45652A",
":	c #57CA2A",
"<	c #7D9C61",
"[	c #A99E95",
"}	c #62A73E",
"|	c #A79C93",
"1	c #312920",
"2	c #51BD27",
"3	c #809A62",
"4	c #A59A91",
"5	c #9B9A85",
"6	c #A3988F",
"7	c #302820",
"8	c #989983",
"9	c #A2958C",
"0	c #2D261E",
"a	c #7C965E",
"b	c #9F938B",
"c	c #4A9827",
"d	c #60A33D",
"e	c #9D9189",
"f	c #426228",
"g	c #749457",
"h	c #9B8F87",
"i	c #2C251D",
"j	c #4A9727",
"k	c #54BD2C",
"l	c #749358",
"m	c #9A8D84",
"n	c #2B241C",
"o	c #394124",
"p	c #4BA626",
"q	c #5FA13D",
"r	c #78925A",
"s	c #90907A",
"t	c #384023",
"u	c #499727",
"v	c #2A231C",
"w	c #406026",
"x	c #51BC27",
"y	c #59D02B",
"z	c #28221B",
"A	c #27211A",
"......................",
"++++++++++++++++++++++",
"+++++++@#$%&$#@+++++++",
"+++++*=-;;;;;;-=*+++++",
">>>>*,;')!~~!)';,*>>>>",
"{{{{];^/((((((/^;]{{{{",
"{{{_-:<[[[[[[[[<:-_{{{",
"{{{=;}||||||||||};={{{",
"1112;344444444443;2111",
"111&;566666666665;&111",
"777&;899999999998;&777",
"0002;abbbbbbbbbba;2000",
"000c;deeeeeeeeeed;c000",
"000f-:ghhhhhhhhg:-f000",
"iiiij;klmmmmmmlk;jiiii",
"nnnnop;:qrssrq:;ponnnn",
"nnnnntu-;;;;;;-utnnnnn",
"vvvvvvvwux%yxuwvvvvvvv",
"zzzzzzzzzzzzzzzzzzzzzz",
"zzzzzzzzzzzzzzzzzzzzzz",
"AAAAAAAAAAAAAAAAAAAAAA",
"AAAAAAAAAAAAAAAAAAAAAA"};
