/* XPM */
static char * menu_active_xpm[] = {
"22 22 36 1",
" 	c None",
".	c #42372C",
"+	c #362D24",
"@	c #332B22",
"#	c #322A21",
"$	c #312920",
"%	c #2F281F",
"&	c #2A231C",
"*	c #262019",
"=	c #2E271F",
"-	c #393128",
";	c #71655C",
">	c #9A8E85",
",	c #28211A",
"'	c #70655B",
")	c #A99E95",
"!	c #302820",
"~	c #241E18",
"{	c #94887F",
"]	c #A59A91",
"^	c #2D261E",
"/	c #90847B",
"(	c #A2958C",
"_	c #27201A",
":	c #675D54",
"<	c #9D9189",
"[	c #29231B",
"}	c #322B23",
"|	c #655B52",
"1	c #897D74",
"2	c #2C251D",
"3	c #2B241C",
"4	c #251F19",
"5	c #221C16",
"6	c #28221B",
"7	c #27211A",
"......................",
"++++++++++++++++++++++",
"++++++++++++++++++++++",
"++++++++++++++++++++++",
"@@@@@@@@@@@@@@@@@@@@@@",
"######################",
"######################",
"#######$%&**&%$#######",
"$$$$$$$=-;>>;-=$$$$$$$",
"$$$$$$$,'))))',$$$$$$$",
"!!!!!!!~{]]]]{~!!!!!!!",
"^^^^^^^~/((((/~^^^^^^^",
"^^^^^^^_:<<<<:_^^^^^^^",
"^^^^^^^[}|11|}[^^^^^^^",
"22222223[4554[32222222",
"3333333333333333333333",
"3333333333333333333333",
"&&&&&&&&&&&&&&&&&&&&&&",
"6666666666666666666666",
"6666666666666666666666",
"7777777777777777777777",
"7777777777777777777777"};
