/* XPM */
static char * title_3_inactive_xpm[] = {
"10 22 13 1",
" 	c None",
".	c #42372C",
"+	c #362D24",
"@	c #332B22",
"#	c #322A21",
"$	c #312920",
"%	c #302820",
"&	c #2D261E",
"*	c #2C251D",
"=	c #2B241C",
"-	c #2A231C",
";	c #28221B",
">	c #27211A",
"..........",
"++++++++++",
"++++++++++",
"++++++++++",
"@@@@@@@@@@",
"##########",
"##########",
"##########",
"$$$$$$$$$$",
"$$$$$$$$$$",
"%%%%%%%%%%",
"&&&&&&&&&&",
"&&&&&&&&&&",
"&&&&&&&&&&",
"**********",
"==========",
"==========",
"----------",
";;;;;;;;;;",
";;;;;;;;;;",
">>>>>>>>>>",
">>>>>>>>>>"};
