/* XPM */
static char * top_left_active_shaded_xpm[] = {
"5 22 19 1",
" 	c None",
".	c #42372C",
"+	c #362D24",
"@	c #332B22",
"#	c #3F352A",
"$	c #322A21",
"%	c #3E3429",
"&	c #312920",
"*	c #3D3328",
"=	c #3C3228",
"-	c #302820",
";	c #382F25",
">	c #2D261E",
",	c #372E24",
"'	c #2C251D",
")	c #2B241C",
"!	c #2A231C",
"~	c #28221B",
"{	c #27211A",
"    .",
"  ..+",
" .+++",
" .+++",
".@@@@",
"#$$$$",
"#$$$$",
"%$$$$",
"%&&&&",
"*&&&&",
"=----",
";>>>>",
",>>>>",
"+>>>>",
"@''''",
"$))))",
"&))))",
">!!!!",
"'~~~~",
"!~~~~",
"~{{{{",
"{{{{{"};
