#define desk__width 15
#define desk__height 15
static unsigned char desk__bits[] = {
   0x00, 0x00, 0x00, 0x00, 0x0c, 0x18, 0x0c, 0x18, 0x00, 0x00, 0x00, 0x00,
   0x00, 0x00, 0x00, 0x00, 0x00, 0x00, 0x00, 0x00, 0x00, 0x00, 0x0c, 0x18,
   0x0c, 0x18, 0x00, 0x00, 0x00, 0x00 };
