#define desk_pressed_width 15
#define desk_pressed_height 15
static unsigned char desk_pressed_bits[] = {
   0x00, 0x00, 0x00, 0x00, 0x00, 0x00, 0x18, 0x0c, 0x18, 0x0c, 0x00, 0x00,
   0x00, 0x00, 0x00, 0x00, 0x00, 0x00, 0x00, 0x00, 0x18, 0x0c, 0x18, 0x0c,
   0x00, 0x00, 0x00, 0x00, 0x00, 0x00 };
