#define desk_toggled_width 15
#define desk_toggled_height 15
static unsigned char desk_toggled_bits[] = {
   0x00, 0x00, 0x00, 0x00, 0x00, 0x00, 0x00, 0x00, 0x30, 0x06, 0x30, 0x06,
   0x00, 0x00, 0x00, 0x00, 0x00, 0x00, 0x30, 0x06, 0x30, 0x06, 0x00, 0x00,
   0x00, 0x00, 0x00, 0x00, 0x00, 0x00 };
