#define max_width 15
#define max_height 15
static unsigned char max_bits[] = {
   0x00, 0x00, 0x00, 0x00, 0x00, 0x00, 0xf0, 0x07, 0xf0, 0x07, 0x10, 0x04,
   0x10, 0x04, 0x10, 0x04, 0x10, 0x04, 0x10, 0x04, 0xf0, 0x07, 0x00, 0x00,
   0x00, 0x00, 0x00, 0x00, 0x00, 0x00 };
